<mxfile host="app.diagrams.net" modified="2024-07-18T14:17:49.010Z" agent="Mozilla/5.0 (Windows NT 10.0; Win64; x64) AppleWebKit/537.36 (KHTML, like Gecko) Chrome/126.0.0.0 Safari/537.36 Edg/126.0.0.0" version="24.4.8" etag="QGa8DdL4T4-FF2N_eKJw" type="github">
  <diagram name="Page-1" id="-F04gRd954kAOLukTM_7">
    <mxGraphModel>
      <root>
        <mxCell id="0" />
        <mxCell id="1" parent="0" />
      </root>
    </mxGraphModel>
  </diagram>
</mxfile>
